REM DIRINDEX 1\6,1\2\7,1\2\8,1\2\9,1\3\10,1\3\11,1\4\12,1\4\13,1\4\14,1\5\15,1\5\16,1\5\17
REM DIRNAME folder01,folder02,folder03,folder04,folder05,folder06,folder07,folder08,folder09,folder10,folder11,folder12,folder13,folder14,folder15,folder16,folder17
TITLE ""
FILE "P2Q_t2_0633-0649.mp3" MP3
  TRACK 01 AUDIO
    TITLE "6:cjc040_5729"
    INDEX 01 00:00:00
  TRACK 02 AUDIO
    TITLE "0:"
    INDEX 01 00:07:33
  TRACK 03 AUDIO
    TITLE "7:cjc040_5730"
    INDEX 01 00:08:46
  TRACK 04 AUDIO
    TITLE "0:"
    INDEX 01 00:09:61
  TRACK 05 AUDIO
    TITLE "8:cjc040_5731"
    INDEX 01 00:10:43
  TRACK 06 AUDIO
    TITLE "0:"
    INDEX 01 00:11:60
  TRACK 07 AUDIO
    TITLE "9:cjc040_5732"
    INDEX 01 00:12:42
  TRACK 08 AUDIO
    TITLE "0:"
    INDEX 01 00:13:59
  TRACK 09 AUDIO
    TITLE "7:cjc040_5733"
    INDEX 01 00:15:42
  TRACK 10 AUDIO
    TITLE "0:"
    INDEX 01 00:16:61
  TRACK 11 AUDIO
    TITLE "8:cjc040_5734"
    INDEX 01 00:17:37
  TRACK 12 AUDIO
    TITLE "0:"
    INDEX 01 00:20:20
  TRACK 13 AUDIO
    TITLE "9:cjc040_5735"
    INDEX 01 00:20:73
  TRACK 14 AUDIO
    TITLE "0:"
    INDEX 01 00:22:15
  TRACK 15 AUDIO
    TITLE "7:cjc040_5736"
    INDEX 01 00:23:69
  TRACK 16 AUDIO
    TITLE "0:"
    INDEX 01 00:25:01
  TRACK 17 AUDIO
    TITLE "8:cjc040_5737"
    INDEX 01 00:25:58
  TRACK 18 AUDIO
    TITLE "0:"
    INDEX 01 00:27:04
  TRACK 19 AUDIO
    TITLE "9:cjc040_5738"
    INDEX 01 00:27:55
  TRACK 20 AUDIO
    TITLE "0:"
    INDEX 01 00:28:62
  TRACK 21 AUDIO
    TITLE "7:cjc040_5739"
    INDEX 01 00:30:46
  TRACK 22 AUDIO
    TITLE "0:"
    INDEX 01 00:31:63
  TRACK 23 AUDIO
    TITLE "8:cjc040_5740"
    INDEX 01 00:32:43
  TRACK 24 AUDIO
    TITLE "0:"
    INDEX 01 00:35:25
  TRACK 25 AUDIO
    TITLE "9:cjc040_5741"
    INDEX 01 00:35:74
  TRACK 26 AUDIO
    TITLE "0:"
    INDEX 01 00:37:20
  TRACK 27 AUDIO
    TITLE "7:cjc040_5742"
    INDEX 01 00:39:00
  TRACK 28 AUDIO
    TITLE "0:"
    INDEX 01 00:40:15
  TRACK 29 AUDIO
    TITLE "8:cjc040_5743"
    INDEX 01 00:40:68
  TRACK 30 AUDIO
    TITLE "0:"
    INDEX 01 00:43:35
  TRACK 31 AUDIO
    TITLE "9:cjc040_5744"
    INDEX 01 00:44:14
  TRACK 32 AUDIO
    TITLE "0:"
    INDEX 01 00:45:35
  TRACK 33 AUDIO
    TITLE "7:cjc040_5745"
    INDEX 01 00:47:13
  TRACK 34 AUDIO
    TITLE "0:"
    INDEX 01 00:48:18
  TRACK 35 AUDIO
    TITLE "8:cjc040_5746"
    INDEX 01 00:48:73
  TRACK 36 AUDIO
    TITLE "0:"
    INDEX 01 00:52:63
  TRACK 37 AUDIO
    TITLE "9:cjc040_5747"
    INDEX 01 00:53:43
  TRACK 38 AUDIO
    TITLE "0:"
    INDEX 01 00:54:48
  TRACK 39 AUDIO
    TITLE "7:cjc040_5748"
    INDEX 01 00:56:31
  TRACK 40 AUDIO
    TITLE "0:"
    INDEX 01 00:57:33
  TRACK 41 AUDIO
    TITLE "8:cjc040_5749"
    INDEX 01 00:58:11
  TRACK 42 AUDIO
    TITLE "0:"
    INDEX 01 01:01:44
  TRACK 43 AUDIO
    TITLE "9:cjc040_5750"
    INDEX 01 01:02:20
  TRACK 44 AUDIO
    TITLE "0:"
    INDEX 01 01:03:29
  TRACK 45 AUDIO
    TITLE "7:cjc040_5751"
    INDEX 01 01:05:13
  TRACK 46 AUDIO
    TITLE "0:"
    INDEX 01 01:06:43
  TRACK 47 AUDIO
    TITLE "8:cjc040_5752"
    INDEX 01 01:07:19
  TRACK 48 AUDIO
    TITLE "0:"
    INDEX 01 01:08:60
  TRACK 49 AUDIO
    TITLE "9:cjc040_5753"
    INDEX 01 01:09:38
  TRACK 50 AUDIO
    TITLE "0:"
    INDEX 01 01:11:02
  TRACK 51 AUDIO
    TITLE "7:cjc040_5754"
    INDEX 01 01:12:62
  TRACK 52 AUDIO
    TITLE "0:"
    INDEX 01 01:14:12
  TRACK 53 AUDIO
    TITLE "8:cjc040_5755"
    INDEX 01 01:14:68
  TRACK 54 AUDIO
    TITLE "0:"
    INDEX 01 01:17:24
  TRACK 55 AUDIO
    TITLE "9:cjc040_5756"
    INDEX 01 01:18:09
  TRACK 56 AUDIO
    TITLE "0:"
    INDEX 01 01:19:36
  TRACK 57 AUDIO
    TITLE "7:cjc040_5757"
    INDEX 01 01:21:20
  TRACK 58 AUDIO
    TITLE "0:"
    INDEX 01 01:22:29
  TRACK 59 AUDIO
    TITLE "8:cjc040_5758"
    INDEX 01 01:23:11
  TRACK 60 AUDIO
    TITLE "0:"
    INDEX 01 01:24:45
  TRACK 61 AUDIO
    TITLE "9:cjc040_5759"
    INDEX 01 01:25:27
  TRACK 62 AUDIO
    TITLE "0:"
    INDEX 01 01:26:40
  TRACK 63 AUDIO
    TITLE "7:cjc040_5760"
    INDEX 01 01:28:20
  TRACK 64 AUDIO
    TITLE "0:"
    INDEX 01 01:29:41
  TRACK 65 AUDIO
    TITLE "8:cjc040_5761"
    INDEX 01 01:30:18
  TRACK 66 AUDIO
    TITLE "0:"
    INDEX 01 01:33:17
  TRACK 67 AUDIO
    TITLE "9:cjc040_5762"
    INDEX 01 01:33:74
  TRACK 68 AUDIO
    TITLE "0:"
    INDEX 01 01:35:26
  TRACK 69 AUDIO
    TITLE "7:cjc040_5763"
    INDEX 01 01:37:05
  TRACK 70 AUDIO
    TITLE "0:"
    INDEX 01 01:38:12
  TRACK 71 AUDIO
    TITLE "8:cjc040_5764"
    INDEX 01 01:38:69
  TRACK 72 AUDIO
    TITLE "0:"
    INDEX 01 01:41:38
  TRACK 73 AUDIO
    TITLE "9:cjc040_5765"
    INDEX 01 01:42:16
  TRACK 74 AUDIO
    TITLE "0:"
    INDEX 01 01:43:27
  TRACK 75 AUDIO
    TITLE "7:cjc040_5766"
    INDEX 01 01:45:10
  TRACK 76 AUDIO
    TITLE "0:"
    INDEX 01 01:46:18
  TRACK 77 AUDIO
    TITLE "8:cjc040_5767"
    INDEX 01 01:46:74
  TRACK 78 AUDIO
    TITLE "0:"
    INDEX 01 01:49:45
  TRACK 79 AUDIO
    TITLE "9:cjc040_5768"
    INDEX 01 01:50:25
  TRACK 80 AUDIO
    TITLE "0:"
    INDEX 01 01:51:32
  TRACK 81 AUDIO
    TITLE "7:cjc040_5769"
    INDEX 01 01:53:10
  TRACK 82 AUDIO
    TITLE "0:"
    INDEX 01 01:54:41
  TRACK 83 AUDIO
    TITLE "8:cjc040_5770"
    INDEX 01 01:55:13
  TRACK 84 AUDIO
    TITLE "0:"
    INDEX 01 01:56:30
  TRACK 85 AUDIO
    TITLE "9:cjc040_5771"
    INDEX 01 01:57:11
  TRACK 86 AUDIO
    TITLE "0:"
    INDEX 01 01:58:44
  TRACK 87 AUDIO
    TITLE "7:cjc040_5772"
    INDEX 01 02:00:25
  TRACK 88 AUDIO
    TITLE "0:"
    INDEX 01 02:01:52
  TRACK 89 AUDIO
    TITLE "8:cjc040_5773"
    INDEX 01 02:02:28
  TRACK 90 AUDIO
    TITLE "0:"
    INDEX 01 02:05:15
  TRACK 91 AUDIO
    TITLE "9:cjc040_5774"
    INDEX 01 02:05:62
  TRACK 92 AUDIO
    TITLE "0:"
    INDEX 01 02:07:18
  TRACK 93 AUDIO
    TITLE "7:cjc040_5775"
    INDEX 01 02:08:68
  TRACK 94 AUDIO
    TITLE "0:"
    INDEX 01 02:10:04
  TRACK 95 AUDIO
    TITLE "8:cjc040_5776"
    INDEX 01 02:10:67
  TRACK 96 AUDIO
    TITLE "0:"
    INDEX 01 02:12:09
  TRACK 97 AUDIO
    TITLE "9:cjc040_5777"
    INDEX 01 02:12:70
  TRACK 98 AUDIO
    TITLE "0:"
    INDEX 01 02:14:12
  TRACK 99 AUDIO
    TITLE "7:cjc040_5778"
    INDEX 01 02:15:70
  TRACK 100 AUDIO
    TITLE "0:"
    INDEX 01 02:17:14
  TRACK 101 AUDIO
    TITLE "8:cjc040_5779"
    INDEX 01 02:17:67
  TRACK 102 AUDIO
    TITLE "0:"
    INDEX 01 02:20:30
  TRACK 103 AUDIO
    TITLE "9:cjc040_5780"
    INDEX 01 02:21:08
  TRACK 104 AUDIO
    TITLE "0:"
    INDEX 01 02:22:27
